<?xml version="1.0" encoding="utf-8"?>
<!-- Generator: Adobe Illustrator 24.1.2, SVG Export Plug-In . SVG Version: 6.00 Build 0)  -->
<svg version="1.1" xmlns="http://www.w3.org/2000/svg" xmlns:xlink="http://www.w3.org/1999/xlink" x="0px" y="0px"
	 viewBox="0 0 100 100" style="enable-background:new 0 0 100 100;" xml:space="preserve">
<style type="text/css">
	.st0{fill:#FFFFFF;}
</style>
<g id="Layer_2">
</g>
<g id="Layer_1">
	<g>
		<g>
			<path class="st0" d="M62.7,41c-1.1-0.9-2.7-0.7-3.6,0.4c-0.9,1.1-0.7,2.7,0.4,3.6c1.4,1.2,2.4,3,2.4,5c0,2.1-1,4-2.6,5.2
				c-1,0.8-1.2,2.2-0.4,3.2l0.2,0.2c0.9,1,2.4,1.2,3.5,0.4c2.7-2,4.4-5.3,4.4-9C67,46.4,65.4,43.1,62.7,41z"/>
			<path class="st0" d="M68.6,33.8c-1.1-0.9-2.6-0.7-3.5,0.4l0,0c-0.9,1.1-0.8,2.7,0.3,3.5C69,40.6,71.3,45,71.3,50
				c0,4.9-2.3,9.4-5.9,12.3c-1.1,0.9-1.2,2.5-0.3,3.5l0,0c0.9,1.1,2.5,1.3,3.5,0.4c4.7-3.8,7.8-9.7,7.8-16.2
				C76.3,43.5,73.3,37.6,68.6,33.8z"/>
			<path class="st0" d="M47.8,29.9l-13.1,10h-6.4c-1.7,0-3,1.3-3,3V57c0,1.7,1.3,3,3,3h6.4l13.1,10c2.3,1.8,5.6,0.1,5.6-2.8V32.6
				C53.4,29.7,50.1,28.1,47.8,29.9z"/>
			<path class="st0" d="M50,2.5C23.8,2.5,2.5,23.8,2.5,50S23.8,97.5,50,97.5S97.5,76.2,97.5,50S76.2,2.5,50,2.5z M50,90.1
				c-22.1,0-40.1-18-40.1-40.1S27.9,9.9,50,9.9s40.1,18,40.1,40.1S72.1,90.1,50,90.1z"/>
		</g>
	</g>
</g>
</svg>
