<?xml version="1.0" encoding="utf-8"?>
<!-- Generator: Adobe Illustrator 24.1.2, SVG Export Plug-In . SVG Version: 6.00 Build 0)  -->
<svg version="1.1" xmlns="http://www.w3.org/2000/svg" xmlns:xlink="http://www.w3.org/1999/xlink" x="0px" y="0px"
	 viewBox="0 0 100 100" style="enable-background:new 0 0 100 100;" xml:space="preserve">
<style type="text/css">
	.st0{fill:#FFFFFF;}
</style>
<g id="Layer_2">
</g>
<g id="Layer_1">
	<g>
		<g>
			<path class="st0" d="M50,2.5C23.8,2.5,2.5,23.8,2.5,50S23.8,97.5,50,97.5S97.5,76.2,97.5,50S76.2,2.5,50,2.5z M50,90.1
				c-22.1,0-40.1-18-40.1-40.1S27.9,9.9,50,9.9s40.1,18,40.1,40.1S72.1,90.1,50,90.1z"/>
		</g>
	</g>
</g>
<g id="arrow">
	<g transform="translate(0,-952.36218)">
		<path class="st0" d="M40.9,980.5c-2.5,0.1-4.7,2.2-4.7,5.3v33.2c0.1,4.1,3.9,6.5,7.3,4.6l27.1-16.7c1.5-0.9,2.5-2.6,2.5-4.5
			s-1-3.6-2.5-4.5l-27.1-16.7C42.6,980.7,41.8,980.5,40.9,980.5L40.9,980.5z"/>
	</g>
</g>
</svg>
