<?xml version="1.0" encoding="utf-8"?>
<!-- Generator: Adobe Illustrator 24.1.2, SVG Export Plug-In . SVG Version: 6.00 Build 0)  -->
<svg version="1.1" id="Layer_1" xmlns="http://www.w3.org/2000/svg" xmlns:xlink="http://www.w3.org/1999/xlink" x="0px" y="0px"
	 viewBox="0 0 100 100" style="enable-background:new 0 0 100 100;" xml:space="preserve">
<style type="text/css">
	.st0{fill:#FFFFFF;}
</style>
<path class="st0" d="M8.5,4.6h26.3v7.7H12.3v21.1H4.6V8.5C4.6,6.4,6.4,4.6,8.5,4.6z M95.4,8.5c0-2.1-1.7-3.8-3.8-3.8H66.1v7.7h21.6
	v21.1h7.7C95.4,33.5,95.4,8.5,95.4,8.5z M4.6,91.5c0,2.1,1.7,3.8,3.8,3.8h26.3v-7.7H12.3V64.8H4.6V91.5z M95.4,91.5V64.8h-7.7v22.9
	H66.1v7.7h25.4C93.6,95.4,95.4,93.6,95.4,91.5z M46.1,30v16.2H30v7.7h16.2V70h7.7V53.9H70v-7.7H53.9V30H46.1z"/>
</svg>
